<svg version="1.1" id="Layer_1" xmlns="http://www.w3.org/2000/svg" xmlns:xlink="http://www.w3.org/1999/xlink" x="0px" y="0px"
	 width="100%" viewBox="0 0 496 496" enable-background="new 0 0 496 496" xml:space="preserve">
<path fill="#000000" opacity="1.000000" stroke="none" 
	d="
M483.420227,259.000122 
	C483.417328,276.496826 483.420929,293.493500 483.408203,310.490173 
	C483.397247,325.131226 476.329163,336.080627 462.610901,340.569977 
	C455.768555,342.809174 448.398468,343.667480 440.968658,343.193634 
	C434.374542,342.773041 434.339569,343.076447 434.334045,349.713196 
	C434.322662,363.377258 434.045135,377.048615 434.396210,390.703644 
	C434.919556,411.059479 420.311401,421.584595 403.849243,421.546875 
	C285.039215,421.274689 166.228287,421.406250 47.417637,421.373352 
	C32.498894,421.369232 22.940893,413.858246 19.180807,399.541565 
	C18.403833,396.583191 18.640371,393.580139 18.639578,390.594940 
	C18.617941,309.110504 18.803272,227.625366 18.495071,146.142075 
	C18.414818,124.924332 31.520626,113.686646 51.363476,113.074074 
	C62.850403,112.719467 74.361214,112.827728 85.852654,113.096268 
	C89.953583,113.192108 92.078537,111.934448 92.662315,107.851669 
	C95.086159,90.900063 109.605118,81.905151 125.395576,81.931740 
	C183.217667,82.029114 241.040085,81.917610 298.862183,82.014549 
	C313.950287,82.039841 325.604919,87.834656 331.150055,102.869102 
	C331.319489,103.328484 331.783997,103.697548 331.888977,104.159180 
	C332.571960,107.163246 331.743805,111.282303 334.975739,112.617569 
	C337.689697,113.738831 341.185608,113.022636 344.335388,113.024719 
	C363.165100,113.037178 381.996613,112.865425 400.823761,113.081879 
	C410.324707,113.191116 419.229767,115.513611 426.198364,122.666695 
	C431.416687,128.023148 434.109650,134.607178 434.229004,141.893448 
	C434.510010,159.052307 434.321869,176.218750 434.338379,193.382126 
	C434.344849,200.132568 434.847748,200.334061 441.862427,200.360504 
	C450.795197,200.394150 459.803009,200.175156 468.024139,204.845551 
	C477.662079,210.320831 482.762238,218.653381 483.269745,229.510834 
	C483.720520,239.155197 483.399811,248.835617 483.420227,259.000122 
M32.240303,317.500000 
	C32.246525,341.658905 32.244827,365.817841 32.272625,389.976715 
	C32.275093,392.122131 32.218250,394.239563 33.053791,396.360565 
	C36.284195,404.560730 40.872684,407.694031 50.353355,407.695038 
	C167.153152,407.707184 283.952942,407.703552 400.752747,407.702667 
	C401.919037,407.702667 403.086395,407.714294 404.251465,407.671570 
	C413.461731,407.333801 420.597168,400.158203 420.646118,390.989990 
	C420.720886,376.994415 420.507477,362.995117 420.768677,349.003967 
	C420.853912,344.438202 419.502167,342.950317 414.852753,343.016907 
	C397.027954,343.272186 379.192596,343.420563 361.371185,343.081329 
	C346.441742,342.797150 331.521393,344.182129 316.558136,341.533600 
	C303.269653,339.181519 291.177582,327.597107 290.851898,313.779022 
	C290.463318,297.294098 290.476562,280.786591 290.850433,264.300995 
	C291.134583,251.769516 299.480316,241.724045 311.359070,237.438049 
	C317.828400,235.103867 324.470520,235.190735 331.047424,235.138794 
	C358.871033,234.918976 386.698029,234.941986 414.522034,235.130676 
	C419.350464,235.163422 420.872589,233.644821 420.766815,228.846130 
	C420.487732,216.189285 420.684113,203.522171 420.667694,190.859177 
	C420.665131,188.878433 420.572327,186.987198 419.679901,185.045120 
	C415.917023,176.856583 409.577606,173.098877 400.676147,173.138031 
	C335.544189,173.424423 270.411530,173.066559 205.279312,173.981110 
	C164.798828,174.549484 124.301758,173.901581 83.819633,174.404144 
	C60.811592,174.689804 46.700054,152.309021 52.728840,135.207809 
	C53.534523,132.922409 55.412132,130.941101 55.061455,128.263184 
	C41.320873,125.841461 32.261631,133.507309 32.263355,146.048950 
	C32.271160,202.865967 32.250919,259.682983 32.240303,317.500000 
M312.902588,324.760712 
	C318.336212,327.535980 324.145538,328.819672 330.204742,328.826538 
	C367.023407,328.868225 403.842194,328.829376 440.660797,328.903442 
	C445.850037,328.913879 450.942108,328.515839 456.025574,327.463837 
	C463.898499,325.834564 469.583038,319.852661 469.634430,311.830231 
	C469.804047,285.341949 469.802094,258.851227 469.633606,232.362930 
	C469.580688,224.040237 462.678162,216.427643 454.736298,215.289597 
	C451.117462,214.771042 447.443848,214.547028 443.786652,214.400940 
	C434.330658,214.023209 434.328674,214.070206 434.337494,223.645020 
	C434.338257,224.478027 434.332703,225.311142 434.344574,226.144012 
	C434.473053,235.163986 432.961975,235.038757 443.259430,235.070648 
	C450.776306,235.093933 454.404938,237.538376 454.266937,242.214661 
	C454.127167,246.950455 450.462006,249.253983 442.998962,249.257111 
	C406.846680,249.272278 370.694366,249.283936 334.542084,249.286087 
	C330.376678,249.286346 326.238220,249.437881 322.084656,249.935867 
	C311.593475,251.193695 305.910675,256.823303 304.930908,267.316101 
	C303.719971,280.285339 304.265411,293.287048 304.494293,306.266113 
	C304.615845,313.157257 306.024994,319.900909 312.902588,324.760712 
M182.500000,160.041077 
	C191.161423,160.040619 199.823792,159.964371 208.483810,160.074707 
	C212.279587,160.123047 213.977524,158.666138 213.743210,154.738739 
	C213.525375,151.087769 213.469513,147.393005 213.766388,143.752090 
	C214.540054,134.263550 218.079453,126.130486 225.996140,120.311913 
	C233.739532,114.620705 242.742981,113.231674 251.947021,113.140907 
	C272.099762,112.942162 292.255676,113.081711 312.410095,113.014618 
	C314.297211,113.008339 316.423950,113.695221 318.042664,111.963829 
	C318.337128,110.018600 317.797729,108.332611 316.927704,106.670143 
	C313.013580,99.190887 306.530212,96.245514 298.446594,96.242691 
	C242.147003,96.223053 185.846191,96.436470 129.548569,96.103050 
	C112.764557,96.003647 105.326851,105.197884 105.341965,120.264832 
	C105.352997,131.258194 105.324799,142.251587 105.323753,153.244965 
	C105.323143,159.745178 105.543030,160.020554 112.041664,160.028671 
	C135.194412,160.057587 158.347214,160.040894 182.500000,160.041077 
M353.631287,128.862915 
	C351.191742,128.371292 348.753510,127.459160 346.312500,127.451653 
	C314.168640,127.352722 282.023590,127.247574 249.880783,127.450272 
	C238.597153,127.521423 231.890320,132.482758 228.810303,141.789413 
	C227.468307,145.844421 228.424454,150.065964 227.959900,154.180908 
	C227.459549,158.613068 229.461090,160.043152 233.729706,159.933868 
	C243.207657,159.691162 252.690262,159.235107 262.155090,159.110840 
	C294.460510,158.686722 326.773315,158.817017 359.083282,158.742767 
	C369.233887,158.719437 369.233917,158.729538 369.072968,148.375595 
	C368.911194,137.968506 364.184479,131.735016 353.631287,128.862915 
M400.410889,158.726028 
	C407.410492,157.857986 413.457092,161.462326 420.494904,163.465820 
	C420.494904,155.987213 421.316315,148.937973 420.264954,142.180099 
	C419.203583,135.357803 415.062622,130.335648 407.476410,128.576157 
	C399.024872,126.615990 390.569611,127.801476 382.126740,127.412674 
	C379.526001,127.292908 378.693756,129.127594 379.609558,131.025070 
	C383.340668,138.755630 383.627838,146.943741 383.342255,155.245178 
	C383.253784,157.817215 384.453857,158.840775 386.952454,158.791245 
	C391.112183,158.708786 395.274200,158.740112 400.410889,158.726028 
M76.089691,158.705673 
	C79.575073,158.817017 82.876411,160.089767 86.432373,160.058472 
	C90.281097,160.024597 91.779785,158.607590 91.650513,154.721619 
	C91.440826,148.418228 91.627411,142.102402 91.602226,135.791992 
	C91.568329,127.299469 90.955513,126.758583 82.379051,127.396667 
	C74.091774,128.013245 67.675285,133.581543 66.007530,141.604050 
	C64.681244,147.983963 68.569611,155.096954 76.089691,158.705673 
z"/>
<path fill="#000000" opacity="1.000000" stroke="none" 
	d="
M235.874359,244.662842 
	C239.024918,244.487488 240.316467,245.581589 240.311066,248.408859 
	C240.266510,271.716034 240.290833,295.023315 240.277573,318.330566 
	C240.276917,319.482208 240.250534,320.651398 239.160934,321.474152 
	C235.868896,323.959808 223.889297,321.623291 221.648117,318.015137 
	C213.744705,305.291199 205.867340,292.550995 197.936371,279.844269 
	C197.016602,278.370697 196.468323,276.574097 194.208191,275.177704 
	C194.208191,280.586823 194.208450,285.516541 194.208130,290.446259 
	C194.207626,298.270905 194.208801,306.095520 194.205444,313.920166 
	C194.201935,322.106018 194.199951,322.106018 185.954453,322.108856 
	C178.697708,322.111389 178.675339,322.111389 178.670700,315.030640 
	C178.656738,293.720978 178.795135,272.409851 178.558868,251.102783 
	C178.504807,246.227173 179.731033,244.751678 184.873886,244.420563 
	C192.165085,243.951141 196.371902,246.455032 199.851685,252.786301 
	C205.857925,263.714355 212.713303,274.176331 219.234802,284.820099 
	C220.669479,287.161652 222.197845,289.445801 224.724991,291.445862 
	C224.724991,282.694794 224.724457,273.943695 224.725204,265.192627 
	C224.725616,260.198181 224.983948,255.186737 224.653778,250.214310 
	C224.356644,245.738968 226.094742,244.114471 230.402161,244.628418 
	C232.043457,244.824249 233.727982,244.657944 235.874359,244.662842 
z"/>
<path fill="#000000" opacity="1.000000" stroke="none" 
	d="
M165.095505,313.863922 
	C164.725937,316.852051 166.253693,320.505829 163.158752,321.490967 
	C158.924240,322.838776 154.266342,322.654877 149.883102,321.457642 
	C148.415649,321.056854 148.661057,319.238434 148.660233,317.935730 
	C148.645645,294.944702 148.695251,271.953552 148.609589,248.962860 
	C148.597351,245.680222 149.882263,244.598618 153.039230,244.636536 
	C167.290710,244.807800 164.988571,243.176529 165.069580,255.904877 
	C165.191513,275.063324 165.098785,294.223145 165.095505,313.863922 
z"/>
<path fill="#000000" opacity="1.000000" stroke="none" 
	d="
M344.276001,315.187805 
	C323.489288,307.582153 321.139191,281.781677 334.596283,269.669952 
	C345.330170,260.009155 360.921387,260.709381 371.593719,271.249725 
	C381.796448,281.326263 381.952393,295.541565 372.597229,306.755005 
	C364.987183,315.876709 355.510590,317.467163 344.276001,315.187805 
M352.490540,277.259399 
	C347.183319,277.397156 343.155640,279.683716 341.320312,284.749908 
	C339.184174,290.646484 340.538666,296.249237 344.378876,299.294861 
	C348.398682,302.482941 354.472900,302.827576 358.870209,299.949280 
	C363.063324,297.204620 365.476624,293.010681 365.154083,288.216187 
	C364.759552,282.351074 359.617371,278.159302 352.490540,277.259399 
z"/>
</svg>